<?xml version="1.0" standalone="no"?><!DOCTYPE svg PUBLIC "-//W3C//DTD SVG 1.1//EN" "http://www.w3.org/Graphics/SVG/1.1/DTD/svg11.dtd"><svg t="1726125583160" class="icon" viewBox="0 0 1024 1024" version="1.1" xmlns="http://www.w3.org/2000/svg" p-id="14411" data-spm-anchor-id="a313x.search_index.0.i1.47a23a81K60kMf" xmlns:xlink="http://www.w3.org/1999/xlink" width="256" height="256"><path d="M653.88544 0a92.16 92.16 0 0 1 65.09568 26.9312l187.61728 187.21792a92.16 92.16 0 0 1 27.05408 65.2288v120.6272A80.10752 80.10752 0 0 1 1013.76 480.09216v319.7952a80.10752 80.10752 0 0 1-77.55776 80.06656l-2.54976 0.03072v48.00512c0 53.02272-43.02848 96-96.12288 96H196.7104c-53.0944 0-96.12288-42.97728-96.12288-96v-48.00512A80.10752 80.10752 0 0 1 20.48 799.8976v-319.7952a80.10752 80.10752 0 0 1 77.55776-80.06656l2.54976-0.04096V96C100.58752 42.97728 143.616 0 196.7104 0h457.17504zM837.5296 879.99488H196.7104v17.28512a30.72 30.72 0 0 0 30.72 30.72h579.3792a30.72 30.72 0 0 0 30.72-30.72v-17.28512zM452.57728 559.49312h-52.98176L305.09056 719.36h44.89216l19.11808-34.08896h62.6688l4.15744 34.08896h42.41408l-25.76384-159.86688z m119.1424 0h-47.2576L490.60864 719.36h42.40384l12.71808-58.2656c4.94592 0.21504 9.3184 0.38912 13.1072 0.50176 3.7888 0.1024 6.99392 0.16384 9.6256 0.16384 21.44256 0 38.27712-5.25312 50.50368-15.74912 12.22656-10.496 18.3296-24.90368 18.3296-43.20256 0-14.848-5.29408-25.78432-15.91296-32.78848-10.60864-7.0144-27.16672-10.52672-49.664-10.52672z m141.4144 0h-42.63936l-34.0992 159.86688h42.6496l34.07872-159.86688zM420.9664 590.77632l7.64928 64.34816h-43.08992l35.44064-64.34816z m149.73952-2.47808c8.0896 0 14.2848 1.60768 18.56512 4.83328 4.27008 3.2256 6.41024 7.91552 6.41024 14.06976 0 7.49568-2.85696 13.3632-8.5504 17.60256-5.70368 4.23936-13.69088 6.3488-23.9616 6.3488h-11.25376l8.88832-42.8544h9.90208z m37.632-499.97824H227.4304a30.72 30.72 0 0 0-30.72 30.72v280.95488h640.8192v-81.5616H700.52864c-50.8928-0.01024-92.14976-41.2672-92.16-92.16l-0.03072-137.95328z m96.12288 59.84256v58.91072a15.36 15.36 0 0 0 15.36 15.36h59.0848l-74.4448-74.27072z" fill="#82e72d" p-id="14412" data-spm-anchor-id="a313x.search_index.0.i2.47a23a81K60kMf" class=""></path></svg>